<?xml version="1.0" ?><!DOCTYPE svg  PUBLIC '-//W3C//DTD SVG 1.1//EN'  'http://www.w3.org/Graphics/SVG/1.1/DTD/svg11.dtd'>
<?xml-stylesheet type="text/css" href="svg-icons.css" ?>
<svg class="alt" height="32px" version="1.1" viewBox="0 0 32 32" width="32px" xmlns="http://www.w3.org/2000/svg" xmlns:sketch="http://www.bohemiancoding.com/sketch/ns" xmlns:xlink="http://www.w3.org/1999/xlink">
    <g fill="none" fill-rule="evenodd" id="Icons with numbers" stroke="none" stroke-width="1">
        <g id="Group" transform="translate(-480.000000, -336.000000)">
            <path d="M488,350 C491.313709,350 494,347.313709 494,344 C494,340.686291 491.313709,338 488,338 C484.686291,338 482,340.686291 482,344 C482,347.313709 484.686291,350 488,350 Z M488,352 C483.581722,352 480,348.418278 480,344 C480,339.581722 483.581722,336 488,336 C492.418278,336 496,339.581722 496,344 C496,348.418278 492.418278,352 488,352 Z M488,341 L492,346 L484,346 Z M488,341" id="Oval 186"/>
        </g>
    </g>
</svg>